# xmcd CD database file
#
# Track frame offsets:
#	150
#	4242
#	26120
#	64862
#	84135
#	120507
#	150847
#	168012
#	202555
#
# Disc length: 3155 seconds
#
# Revision: 1
# Processed by: cddbd v1.4PL0 Copyright (c) Steve Scherf et al.
# Submitted via: CDex 1.51
#
DISCID=550c5109
DTITLE=Albert KING - Thursday Night In San Francisco
DYEAR=1968
DGENRE=Blues
TTITLE0=San-Ho-Zay
TTITLE1=You Upset Me, Baby
TTITLE2=Call It Stormy Monday
TTITLE3=Everyday I Have The Blues
TTITLE4=Drifting Blues
TTITLE5=I've Made Nights By Myself
TTITLE6=Crosscut Saw
TTITLE7=I'm Gonna Move To The Outskirts Of Town
TTITLE8=Ooh-Ee-Baby
EXTD=YEAR: 1968
EXTT0=
EXTT1=
EXTT2=
EXTT3=
EXTT4=
EXTT5=
EXTT6=
EXTT7=
EXTT8=
PLAYORDER=
